<svg xmlns="http://www.w3.org/2000/svg" viewBox="0 0 1000 600">
  <!-- Background -->
  <rect width="1000" height="950" fill="#ffffff" />
  
  <!-- White Enclosing Box -->
  <rect x="20" y="310" width="970" height="570" stroke="#333333" stroke-width="2" fill="none" rx="5" ry="5" />
  
  <!-- Title Section -->
  <text x="30" y="100" font-family="Arial, sans-serif" font-size="48" font-weight="bold" fill="#333333">Methodology</text>
  
  <!-- Subtitle Texts -->
  <text x="150" y="150" font-family="Arial, sans-serif" font-size="14" fill="#333333" text-anchor="middle">Business &amp; Technology strategy</text>
  <text x="150" y="170" font-family="Arial, sans-serif" font-size="14" fill="#333333" text-anchor="middle">for each capability</text>
  
  <text x="380" y="150" font-family="Arial, sans-serif" font-size="14" fill="#333333" text-anchor="middle">Definition of Current State and</text>
  <text x="380" y="170" font-family="Arial, sans-serif" font-size="14" fill="#333333" text-anchor="middle">desired Target State for each capability</text>
  
  <text x="585" y="150" font-family="Arial, sans-serif" font-size="14" fill="#333333" text-anchor="middle">Opportunities for</text>
  <text x="585" y="170" font-family="Arial, sans-serif" font-size="14" fill="#333333" text-anchor="middle">enhancements &amp; options</text>
  
  <text x="795" y="150" font-family="Arial, sans-serif" font-size="14" fill="#333333" text-anchor="middle">The sequencing of</text>
  <text x="795" y="170" font-family="Arial, sans-serif" font-size="14" fill="#333333" text-anchor="middle">Transition States</text>
  
  <text x="905" y="150" font-family="Arial, sans-serif" font-size="14" fill="#333333" text-anchor="middle">Deliver the</text>
  <text x="905" y="170" font-family="Arial, sans-serif" font-size="14" fill="#333333" text-anchor="middle">strategic vision</text>
  
  <!-- Flow Labels (without arrows) -->
  <text x="105" y="270" font-family="Arial, sans-serif" font-size="18" fill="#0066cc" text-anchor="middle">Strategy</text>
  
  <text x="265" y="270" font-family="Arial, sans-serif" font-size="18" fill="#0066cc" text-anchor="middle">Current State</text>
  
  <text x="425" y="270" font-family="Arial, sans-serif" font-size="18" fill="#0066cc" text-anchor="middle">Target State</text>
  
  <text x="585" y="270" font-family="Arial, sans-serif" font-size="18" fill="#0066cc" text-anchor="middle">Roadmap</text>
  
  <text x="745" y="270" font-family="Arial, sans-serif" font-size="18" fill="#0066cc" text-anchor="middle">Enablement</text>
  
  <text x="905" y="270" font-family="Arial, sans-serif" font-size="18" fill="#0066cc" text-anchor="middle">Execution</text>
  
  <!-- Boxes Section -->
  <!-- Strategy Column -->
  <rect x="30" y="320" width="150" height="70" stroke="#333333" stroke-width="1" fill="#2196F3" rx="3" ry="3" />
  <text x="105" y="355" font-family="Arial, sans-serif" font-size="14" fill="#ffffff" text-anchor="middle">Strategic</text>
  <text x="105" y="375" font-family="Arial, sans-serif" font-size="14" fill="#ffffff" text-anchor="middle">Business Goals</text>
  
  <rect x="30" y="400" width="150" height="70" stroke="#333333" stroke-width="1" fill="#2196F3" rx="3" ry="3" />
  <text x="105" y="435" font-family="Arial, sans-serif" font-size="14" fill="#ffffff" text-anchor="middle">Business</text>
  <text x="105" y="455" font-family="Arial, sans-serif" font-size="14" fill="#ffffff" text-anchor="middle">Requirements</text>
  
  <rect x="30" y="480" width="150" height="70" stroke="#333333" stroke-width="1" fill="#2196F3" rx="3" ry="3" />
  <text x="105" y="525" font-family="Arial, sans-serif" font-size="14" fill="#ffffff" text-anchor="middle">Principles</text>

  <!-- Current State Column -->
  <rect x="190" y="320" width="150" height="70" stroke="#333333" stroke-width="1" fill="#2196F3" rx="3" ry="3" />
  <text x="265" y="355" font-family="Arial, sans-serif" font-size="14" fill="#ffffff" text-anchor="middle">Business</text>
  <text x="265" y="375" font-family="Arial, sans-serif" font-size="14" fill="#ffffff" text-anchor="middle">Architecture</text>
  
  <rect x="190" y="400" width="150" height="70" stroke="#333333" stroke-width="1" fill="#2196F3" rx="3" ry="3" />
  <text x="265" y="435" font-family="Arial, sans-serif" font-size="14" fill="#ffffff" text-anchor="middle">Data</text>
  <text x="265" y="455" font-family="Arial, sans-serif" font-size="14" fill="#ffffff" text-anchor="middle">Architecture</text>
  
  <rect x="190" y="480" width="150" height="70" stroke="#333333" stroke-width="1" fill="#2196F3" rx="3" ry="3" />
  <text x="265" y="515" font-family="Arial, sans-serif" font-size="14" fill="#ffffff" text-anchor="middle">Application</text>
  <text x="265" y="535" font-family="Arial, sans-serif" font-size="14" fill="#ffffff" text-anchor="middle">Architecture</text>
  
  <rect x="190" y="560" width="150" height="70" stroke="#333333" stroke-width="1" fill="#2196F3" rx="3" ry="3" />
  <text x="265" y="595" font-family="Arial, sans-serif" font-size="14" fill="#ffffff" text-anchor="middle">Technology</text>
  <text x="265" y="615" font-family="Arial, sans-serif" font-size="14" fill="#ffffff" text-anchor="middle">Architecture</text>
  
  <rect x="190" y="640" width="150" height="70" stroke="#333333" stroke-width="1" fill="#2196F3" rx="3" ry="3" />
  <text x="265" y="675" font-family="Arial, sans-serif" font-size="14" fill="#ffffff" text-anchor="middle">Operating</text>
  <text x="265" y="695" font-family="Arial, sans-serif" font-size="14" fill="#ffffff" text-anchor="middle">Model</text>
  
  <rect x="190" y="720" width="150" height="70" stroke="#333333" stroke-width="1" fill="#2196F3" rx="3" ry="3" />
  <text x="265" y="755" font-family="Arial, sans-serif" font-size="14" fill="#ffffff" text-anchor="middle">Cyber Security</text>
  <text x="265" y="775" font-family="Arial, sans-serif" font-size="14" fill="#ffffff" text-anchor="middle">Architecture</text>

  <!-- Target State Column -->
  <rect x="350" y="320" width="150" height="70" stroke="#333333" stroke-width="1" fill="#2196F3" rx="3" ry="3" />
  <text x="425" y="355" font-family="Arial, sans-serif" font-size="14" fill="#ffffff" text-anchor="middle">Business</text>
  <text x="425" y="375" font-family="Arial, sans-serif" font-size="14" fill="#ffffff" text-anchor="middle">Architecture</text>
  
  <rect x="350" y="400" width="150" height="70" stroke="#333333" stroke-width="1" fill="#2196F3" rx="3" ry="3" />
  <text x="425" y="435" font-family="Arial, sans-serif" font-size="14" fill="#ffffff" text-anchor="middle">Data</text>
  <text x="425" y="455" font-family="Arial, sans-serif" font-size="14" fill="#ffffff" text-anchor="middle">Architecture</text>
  
  <rect x="350" y="480" width="150" height="70" stroke="#333333" stroke-width="1" fill="#2196F3" rx="3" ry="3" />
  <text x="425" y="515" font-family="Arial, sans-serif" font-size="14" fill="#ffffff" text-anchor="middle">Application</text>
  <text x="425" y="535" font-family="Arial, sans-serif" font-size="14" fill="#ffffff" text-anchor="middle">Architecture</text>
  
  <rect x="350" y="560" width="150" height="70" stroke="#333333" stroke-width="1" fill="#2196F3" rx="3" ry="3" />
  <text x="425" y="595" font-family="Arial, sans-serif" font-size="14" fill="#ffffff" text-anchor="middle">Technology</text>
  <text x="425" y="615" font-family="Arial, sans-serif" font-size="14" fill="#ffffff" text-anchor="middle">Architecture</text>
  
  <rect x="350" y="640" width="150" height="70" stroke="#333333" stroke-width="1" fill="#2196F3" rx="3" ry="3" />
  <text x="425" y="675" font-family="Arial, sans-serif" font-size="14" fill="#ffffff" text-anchor="middle">Operating</text>
  <text x="425" y="695" font-family="Arial, sans-serif" font-size="14" fill="#ffffff" text-anchor="middle">Model</text>
  
  <rect x="350" y="720" width="150" height="70" stroke="#333333" stroke-width="1" fill="#2196F3" rx="3" ry="3" />
  <text x="425" y="755" font-family="Arial, sans-serif" font-size="14" fill="#ffffff" text-anchor="middle">Cyber Security</text>
  <text x="425" y="775" font-family="Arial, sans-serif" font-size="14" fill="#ffffff" text-anchor="middle">Architecture</text>

  <!-- Transition States -->
  <rect x="510" y="320" width="150" height="70" stroke="#333333" stroke-width="1" fill="#2196F3" rx="3" ry="3" />
  <text x="585" y="355" font-family="Arial, sans-serif" font-size="14" fill="#ffffff" text-anchor="middle">Transition</text>
  <text x="585" y="375" font-family="Arial, sans-serif" font-size="14" fill="#ffffff" text-anchor="middle">States</text>

  <!-- Enablement Column -->
  <rect x="670" y="320" width="150" height="70" stroke="#333333" stroke-width="1" fill="#2196F3" rx="3" ry="3" />
  <text x="745" y="365" font-family="Arial, sans-serif" font-size="14" fill="#ffffff" text-anchor="middle">Guardrails</text>
  
  <rect x="670" y="400" width="150" height="70" stroke="#333333" stroke-width="1" fill="#2196F3" rx="3" ry="3" />
  <text x="745" y="445" font-family="Arial, sans-serif" font-size="14" fill="#ffffff" text-anchor="middle">Requirements</text>
  
  <rect x="670" y="480" width="150" height="70" stroke="#333333" stroke-width="1" fill="#2196F3" rx="3" ry="3" />
  <text x="745" y="525" font-family="Arial, sans-serif" font-size="14" fill="#ffffff" text-anchor="middle">Patterns</text>
  
  <rect x="670" y="560" width="150" height="70" stroke="#333333" stroke-width="1" fill="#2196F3" rx="3" ry="3" />
  <text x="745" y="605" font-family="Arial, sans-serif" font-size="14" fill="#ffffff" text-anchor="middle">Decisions</text>
  
  <rect x="670" y="640" width="150" height="70" stroke="#333333" stroke-width="1" fill="#2196F3" rx="3" ry="3" />
  <text x="745" y="685" font-family="Arial, sans-serif" font-size="14" fill="#ffffff" text-anchor="middle">Metrics</text>

  <!-- Execution Column -->
  <rect x="830" y="320" width="150" height="70" stroke="#333333" stroke-width="1" fill="#2196F3" rx="3" ry="3" />
  <text x="905" y="355" font-family="Arial, sans-serif" font-size="14" fill="#ffffff" text-anchor="middle">Product</text>
  <text x="905" y="375" font-family="Arial, sans-serif" font-size="14" fill="#ffffff" text-anchor="middle">Design</text>
  
  <rect x="830" y="400" width="150" height="70" stroke="#333333" stroke-width="1" fill="#2196F3" rx="3" ry="3" />
  <text x="905" y="435" font-family="Arial, sans-serif" font-size="14" fill="#ffffff" text-anchor="middle">Experience</text>
  <text x="905" y="455" font-family="Arial, sans-serif" font-size="14" fill="#ffffff" text-anchor="middle">Design</text>
  
  <rect x="830" y="480" width="150" height="70" stroke="#333333" stroke-width="1" fill="#2196F3" rx="3" ry="3" />
  <text x="905" y="515" font-family="Arial, sans-serif" font-size="14" fill="#ffffff" text-anchor="middle">Data</text>
  <text x="905" y="535" font-family="Arial, sans-serif" font-size="14" fill="#ffffff" text-anchor="middle">Modelling</text>
  
  <rect x="830" y="560" width="150" height="70" stroke="#333333" stroke-width="1" fill="#2196F3" rx="3" ry="3" />
  <text x="905" y="585" font-family="Arial, sans-serif" font-size="14" fill="#ffffff" text-anchor="middle">System &amp;</text>
  <text x="905" y="605" font-family="Arial, sans-serif" font-size="14" fill="#ffffff" text-anchor="middle">Application</text>
  <text x="905" y="625" font-family="Arial, sans-serif" font-size="14" fill="#ffffff" text-anchor="middle">Design</text>
  
  <rect x="830" y="640" width="150" height="70" stroke="#333333" stroke-width="1" fill="#2196F3" rx="3" ry="3" />
  <text x="905" y="685" font-family="Arial, sans-serif" font-size="14" fill="#ffffff" text-anchor="middle">Engineering</text>
  
  <rect x="830" y="720" width="150" height="70" stroke="#333333" stroke-width="1" fill="#2196F3" rx="3" ry="3" />
  <text x="905" y="765" font-family="Arial, sans-serif" font-size="14" fill="#ffffff" text-anchor="middle">DevSecOps</text>
  
  <rect x="830" y="800" width="150" height="70" stroke="#333333" stroke-width="1" fill="#2196F3" rx="3" ry="3" />
  <text x="905" y="835" font-family="Arial, sans-serif" font-size="14" fill="#ffffff" text-anchor="middle">Delivery</text>
  <text x="905" y="855" font-family="Arial, sans-serif" font-size="14" fill="#ffffff" text-anchor="middle">Management</text>
</svg>
